<svg width="169" height="59" viewBox="0 0 169 59" fill="none" xmlns="http://www.w3.org/2000/svg">
<path d="M0 0.801346H140.204C156.107 0.801346 169 13.6939 169 29.5976C169 45.5014 156.107 58.3939 140.204 58.3939H0V0.801346Z" fill="white"/>
<path d="M35.7488 40.4913C34.2288 40.4913 32.8788 40.1613 31.6988 39.5013C30.5388 38.8413 29.6388 37.9113 28.9988 36.7113C28.3588 35.5113 28.0388 34.1013 28.0388 32.4813C28.0388 30.1413 28.4688 28.0713 29.3288 26.2713C30.1888 24.4513 31.4088 23.0413 32.9888 22.0413C34.5688 21.0413 36.3888 20.5413 38.4488 20.5413C40.0288 20.5413 41.4088 20.8613 42.5888 21.5013C43.7688 22.1413 44.6788 23.0613 45.3188 24.2613C45.9588 25.4413 46.2788 26.8413 46.2788 28.4613C46.2788 30.8013 45.8388 32.8813 44.9588 34.7013C44.0788 36.5213 42.8388 37.9413 41.2388 38.9613C39.6588 39.9813 37.8288 40.4913 35.7488 40.4913ZM36.3788 38.0013C38.0388 38.0013 39.3488 37.2113 40.3088 35.6313C41.2688 34.0513 41.7488 31.8513 41.7488 29.0313C41.7488 27.2313 41.3888 25.8313 40.6688 24.8313C39.9488 23.8113 38.9688 23.3013 37.7288 23.3013C36.6688 23.3013 35.7388 23.6613 34.9388 24.3813C34.1588 25.0813 33.5488 26.1113 33.1088 27.4713C32.6888 28.8113 32.4788 30.4113 32.4788 32.2713C32.4788 34.0713 32.8188 35.4813 33.4988 36.5013C34.1988 37.5013 35.1588 38.0013 36.3788 38.0013ZM61.4398 36.6513C60.0198 38.1113 58.9398 39.1213 58.1998 39.6813C57.4598 40.2213 56.8098 40.4913 56.2498 40.4913C55.4098 40.4913 54.9898 40.1213 54.9898 39.3813C54.9898 38.9613 55.3498 37.1913 56.0698 34.0713L55.8298 34.0113C54.2898 37.1913 52.7598 39.3413 51.2398 40.4613C50.1998 40.4613 49.3798 40.2113 48.7798 39.7113C48.1998 39.1913 47.9098 38.4913 47.9098 37.6113C47.9098 37.2313 47.9998 36.7013 48.1798 36.0213C48.3598 35.3213 48.6198 34.3613 48.9598 33.1413C49.5798 31.0413 49.8898 29.7713 49.8898 29.3313C49.8898 28.9713 49.7998 28.7113 49.6198 28.5513C49.4398 28.3713 49.1498 28.2813 48.7498 28.2813H47.6998L47.9998 26.5413C49.1398 26.5413 51.0298 26.4613 53.6698 26.3013L54.0298 26.7513C53.2498 29.0913 52.6198 31.1213 52.1398 32.8413C51.6598 34.5613 51.4198 35.6213 51.4198 36.0213C51.4198 36.3213 51.4698 36.5413 51.5698 36.6813C51.6698 36.8213 51.8498 36.8913 52.1098 36.8913C52.5498 36.8913 53.1898 36.2013 54.0298 34.8213C54.8898 33.4413 55.8098 31.5913 56.7898 29.2713L57.2398 26.4213L57.6598 26.2113L60.6598 26.3613L60.9598 26.7813C60.4998 28.2413 60.0498 29.9113 59.6098 31.7913C59.1698 33.6513 58.8398 35.2813 58.6198 36.6813L58.7098 36.8013C58.8698 36.7613 59.0598 36.6613 59.2798 36.5013C59.5198 36.3213 59.9098 36.0013 60.4498 35.5413L60.9598 35.6013L61.4398 36.6513ZM63.2349 39.9213C63.4149 38.9413 63.7249 37.0713 64.1649 34.3113C64.6249 31.5513 64.8549 29.9213 64.8549 29.4213C64.8549 29.0213 64.7649 28.7313 64.5849 28.5513C64.4249 28.3713 64.1349 28.2813 63.7149 28.2813H62.6649L62.9349 26.5413C63.8549 26.5413 64.9349 26.5113 66.1749 26.4513C67.4149 26.3713 68.2249 26.3213 68.6049 26.3013L68.9649 26.7813C68.8649 27.0813 68.6649 27.7613 68.3649 28.8213C68.0849 29.8613 67.8549 30.9013 67.6749 31.9413H67.8549C68.6549 30.1813 69.5249 28.7713 70.4649 27.7113C71.4049 26.6313 72.2849 26.0713 73.1049 26.0313C73.2849 26.1313 73.4549 26.3213 73.6149 26.6013C73.7749 26.8813 73.8649 27.1613 73.8849 27.4413C73.8649 27.9213 73.7849 28.4613 73.6449 29.0613C73.5049 29.6413 73.3649 30.1513 73.2249 30.5913C73.1049 31.0113 73.0249 31.2813 72.9849 31.4013L71.8449 31.4613C71.8649 30.7613 71.6849 30.4113 71.3049 30.4113C70.7249 30.4113 70.0449 30.9513 69.2649 32.0313C68.5049 33.0913 67.7549 34.5513 67.0149 36.4113L66.6549 39.2913C66.6149 39.5313 66.2549 39.7713 65.5749 40.0113C64.9149 40.2513 64.2649 40.3713 63.6249 40.3713L63.2349 39.9213ZM92.1345 29.7813H91.8645L87.5445 39.9813L82.9245 40.5813C82.7845 39.4613 82.4845 37.1313 82.0245 33.5913C81.5645 30.0313 81.1445 27.0313 80.7645 24.5913C80.6445 23.9713 80.4445 23.5213 80.1645 23.2413C79.8845 22.9613 79.4645 22.8013 78.9045 22.7613L78.7845 22.5513L79.2345 20.8113C79.4745 20.8313 79.9345 20.8513 80.6145 20.8713C81.3145 20.8913 82.0145 20.9013 82.7145 20.9013C83.6745 20.9013 84.6345 20.8713 85.5945 20.8113C86.5545 20.7313 87.1745 20.6713 87.4545 20.6313L87.5745 20.8713L87.2145 22.6113C86.2545 22.7113 85.6045 22.8613 85.2645 23.0613C84.9445 23.2613 84.7845 23.5913 84.7845 24.0513C84.7845 24.9113 84.9345 26.9013 85.2345 30.0213C85.5545 33.1413 85.7745 35.2413 85.8945 36.3213H86.2845C86.6045 35.5413 86.9045 34.8113 87.1845 34.1313C87.4845 33.4313 87.7545 32.8013 87.9945 32.2413C88.4345 31.1813 89.3845 28.9113 90.8445 25.4313L90.9045 24.8013C90.9045 24.6213 90.8845 24.4813 90.8445 24.3813C90.8045 24.2813 90.7745 24.2013 90.7545 24.1413C90.6945 23.6213 90.5245 23.2713 90.2445 23.0913C89.9845 22.8913 89.5145 22.7813 88.8345 22.7613L88.7445 22.5513L89.1945 20.8113C89.4745 20.8113 90.0045 20.8313 90.7845 20.8713C91.5645 20.8913 92.3345 20.9013 93.0945 20.9013C93.9945 20.9013 94.9345 20.8713 95.9145 20.8113C96.8945 20.7313 97.5345 20.6713 97.8345 20.6313L97.9245 20.8713L97.5645 22.6113C96.5845 22.6913 95.9245 22.8313 95.5845 23.0313C95.2645 23.2313 95.1045 23.5613 95.1045 24.0213C95.1045 24.8413 95.2645 26.8213 95.5845 29.9613C95.9045 33.1013 96.1245 35.2213 96.2445 36.3213H96.6345C97.7545 33.7213 98.8845 31.0213 100.025 28.2213C101.185 25.4013 101.765 23.8213 101.765 23.4813C101.765 23.2013 101.665 23.0113 101.465 22.9113C101.265 22.7913 100.915 22.7313 100.415 22.7313H99.3945L99.2745 22.5213L99.7245 20.7213C99.9845 20.7413 100.555 20.7813 101.435 20.8413C102.315 20.8813 103.115 20.9013 103.835 20.9013C104.575 20.9013 105.245 20.8913 105.845 20.8713C106.465 20.8513 106.875 20.8313 107.075 20.8113L106.625 22.7313C106.185 22.8113 105.855 22.9513 105.635 23.1513C105.415 23.3313 105.175 23.7013 104.915 24.2613L97.9245 39.9813L93.3345 40.5813L92.1345 29.7813ZM108.496 40.4913C107.176 40.4913 106.136 40.0213 105.376 39.0813C104.616 38.1213 104.236 36.8113 104.236 35.1513C104.236 33.4513 104.556 31.9013 105.196 30.5013C105.856 29.0813 106.746 27.9713 107.866 27.1713C109.006 26.3513 110.266 25.9413 111.646 25.9413C113.006 25.9413 114.056 26.3813 114.796 27.2613C115.556 28.1213 115.936 29.3513 115.936 30.9513C115.936 32.7313 115.616 34.3513 114.976 35.8113C114.336 37.2513 113.446 38.3913 112.306 39.2313C111.166 40.0713 109.896 40.4913 108.496 40.4913ZM109.696 38.1513C110.496 38.1513 111.126 37.6513 111.586 36.6513C112.046 35.6513 112.276 34.2113 112.276 32.3313C112.276 31.0913 112.116 30.1513 111.796 29.5113C111.496 28.8713 111.036 28.5513 110.416 28.5513C109.616 28.5513 108.986 29.0213 108.526 29.9613C108.066 30.8813 107.836 32.1913 107.836 33.8913C107.836 35.2713 107.996 36.3313 108.316 37.0713C108.656 37.7913 109.116 38.1513 109.696 38.1513ZM118.137 39.9213C118.317 38.9413 118.627 37.0713 119.067 34.3113C119.527 31.5513 119.757 29.9213 119.757 29.4213C119.757 29.0213 119.667 28.7313 119.487 28.5513C119.327 28.3713 119.037 28.2813 118.617 28.2813H117.567L117.837 26.5413C118.757 26.5413 119.837 26.5113 121.077 26.4513C122.317 26.3713 123.127 26.3213 123.507 26.3013L123.867 26.7813C123.767 27.0813 123.567 27.7613 123.267 28.8213C122.987 29.8613 122.757 30.9013 122.577 31.9413H122.757C123.557 30.1813 124.427 28.7713 125.367 27.7113C126.307 26.6313 127.187 26.0713 128.007 26.0313C128.187 26.1313 128.357 26.3213 128.517 26.6013C128.677 26.8813 128.767 27.1613 128.787 27.4413C128.767 27.9213 128.687 28.4613 128.547 29.0613C128.407 29.6413 128.267 30.1513 128.127 30.5913C128.007 31.0113 127.927 31.2813 127.887 31.4013L126.747 31.4613C126.767 30.7613 126.587 30.4113 126.207 30.4113C125.627 30.4113 124.947 30.9513 124.167 32.0313C123.407 33.0913 122.657 34.5513 121.917 36.4113L121.557 39.2913C121.517 39.5313 121.157 39.7713 120.477 40.0113C119.817 40.2513 119.167 40.3713 118.527 40.3713L118.137 39.9213ZM134.641 34.0113C135.601 33.5313 136.391 33.0213 137.011 32.4813C137.631 31.9213 137.941 31.3013 137.941 30.6213C137.941 30.3213 137.871 30.0913 137.731 29.9313C137.591 29.7713 137.391 29.6913 137.131 29.6913C136.631 29.6913 135.931 30.3913 135.031 31.7913C134.151 33.1713 133.271 34.9513 132.391 37.1313L132.121 39.2913C132.081 39.5313 131.721 39.7713 131.041 40.0113C130.381 40.2513 129.731 40.3713 129.091 40.3713L128.701 39.9213C129.001 38.0613 129.551 34.5813 130.351 29.4813C131.171 24.3613 131.581 21.5713 131.581 21.1113C131.581 20.7313 131.491 20.4513 131.311 20.2713C131.131 20.0913 130.841 20.0013 130.441 20.0013H129.391L129.631 18.2913C130.551 18.2913 131.641 18.2613 132.901 18.2013C134.161 18.1213 134.991 18.0613 135.391 18.0213L135.721 18.5013C135.621 18.9013 135.411 19.8313 135.091 21.2913C134.791 22.7513 134.431 24.5413 134.011 26.6613C133.611 28.7613 133.261 30.7813 132.961 32.7213L133.141 32.7513C134.921 29.1113 136.571 26.8413 138.091 25.9413C139.111 25.9413 139.931 26.2213 140.551 26.7813C141.171 27.3413 141.481 28.0613 141.481 28.9413C141.481 29.8613 141.131 30.7913 140.431 31.7313C139.751 32.6513 138.751 33.5413 137.431 34.4013C138.011 35.4613 138.621 36.4913 139.261 37.4913C139.921 38.4713 140.351 39.1013 140.551 39.3813L140.521 39.8913L137.341 40.7013L136.951 40.4913L134.461 34.5213L134.641 34.0113Z" fill="#FCB0B0"/>
</svg>
