<svg width="205" height="60" viewBox="0 0 205 60" fill="none" xmlns="http://www.w3.org/2000/svg">
<path d="M0 0H175C191.569 0 205 13.4315 205 30V30C205 46.5685 191.569 60 175 60H0V0Z" fill="white"/>
<path d="M41.327 40.36C39.807 40.36 38.457 40.03 37.277 39.37C36.117 38.71 35.217 37.78 34.577 36.58C33.937 35.38 33.617 33.97 33.617 32.35C33.617 30.01 34.047 27.94 34.907 26.14C35.767 24.32 36.987 22.91 38.567 21.91C40.147 20.91 41.967 20.41 44.027 20.41C45.607 20.41 46.987 20.73 48.167 21.37C49.347 22.01 50.257 22.93 50.897 24.13C51.537 25.31 51.857 26.71 51.857 28.33C51.857 30.67 51.417 32.75 50.537 34.57C49.657 36.39 48.417 37.81 46.817 38.83C45.237 39.85 43.407 40.36 41.327 40.36ZM41.957 37.87C43.617 37.87 44.927 37.08 45.887 35.5C46.847 33.92 47.327 31.72 47.327 28.9C47.327 27.1 46.967 25.7 46.247 24.7C45.527 23.68 44.547 23.17 43.307 23.17C42.247 23.17 41.317 23.53 40.517 24.25C39.737 24.95 39.127 25.98 38.687 27.34C38.267 28.68 38.057 30.28 38.057 32.14C38.057 33.94 38.397 35.35 39.077 36.37C39.777 37.37 40.737 37.87 41.957 37.87ZM67.018 36.52C65.598 37.98 64.518 38.99 63.778 39.55C63.038 40.09 62.388 40.36 61.828 40.36C60.988 40.36 60.568 39.99 60.568 39.25C60.568 38.83 60.928 37.06 61.648 33.94L61.408 33.88C59.868 37.06 58.338 39.21 56.818 40.33C55.778 40.33 54.958 40.08 54.358 39.58C53.778 39.06 53.488 38.36 53.488 37.48C53.488 37.1 53.578 36.57 53.758 35.89C53.938 35.19 54.198 34.23 54.538 33.01C55.158 30.91 55.468 29.64 55.468 29.2C55.468 28.84 55.378 28.58 55.198 28.42C55.018 28.24 54.728 28.15 54.328 28.15H53.278L53.578 26.41C54.718 26.41 56.608 26.33 59.248 26.17L59.608 26.62C58.828 28.96 58.198 30.99 57.718 32.71C57.238 34.43 56.998 35.49 56.998 35.89C56.998 36.19 57.048 36.41 57.148 36.55C57.248 36.69 57.428 36.76 57.688 36.76C58.128 36.76 58.768 36.07 59.608 34.69C60.468 33.31 61.388 31.46 62.368 29.14L62.818 26.29L63.238 26.08L66.238 26.23L66.538 26.65C66.078 28.11 65.628 29.78 65.188 31.66C64.748 33.52 64.418 35.15 64.198 36.55L64.288 36.67C64.448 36.63 64.638 36.53 64.858 36.37C65.098 36.19 65.488 35.87 66.028 35.41L66.538 35.47L67.018 36.52ZM68.8131 39.79C68.9931 38.81 69.3031 36.94 69.7431 34.18C70.2031 31.42 70.4331 29.79 70.4331 29.29C70.4331 28.89 70.3431 28.6 70.1631 28.42C70.0031 28.24 69.7131 28.15 69.2931 28.15H68.2431L68.5131 26.41C69.4331 26.41 70.5131 26.38 71.7531 26.32C72.9931 26.24 73.8031 26.19 74.1831 26.17L74.5431 26.65C74.4431 26.95 74.2431 27.63 73.9431 28.69C73.6631 29.73 73.4331 30.77 73.2531 31.81H73.4331C74.2331 30.05 75.1031 28.64 76.0431 27.58C76.9831 26.5 77.8631 25.94 78.6831 25.9C78.8631 26 79.0331 26.19 79.1931 26.47C79.3531 26.75 79.4431 27.03 79.4631 27.31C79.4431 27.79 79.3631 28.33 79.2231 28.93C79.0831 29.51 78.9431 30.02 78.8031 30.46C78.6831 30.88 78.6031 31.15 78.5631 31.27L77.4231 31.33C77.4431 30.63 77.2631 30.28 76.8831 30.28C76.3031 30.28 75.6231 30.82 74.8431 31.9C74.0831 32.96 73.3331 34.42 72.5931 36.28L72.2331 39.16C72.1931 39.4 71.8331 39.64 71.1531 39.88C70.4931 40.12 69.8431 40.24 69.2031 40.24L68.8131 39.79ZM86.3127 20.71C86.7927 20.71 87.2127 20.72 87.5727 20.74L89.9427 20.77C90.6427 20.77 91.3927 20.75 92.1927 20.71C92.9927 20.67 93.5527 20.64 93.8727 20.62C96.1127 20.62 97.7927 21.09 98.9127 22.03C100.053 22.95 100.623 24.12 100.623 25.54C100.623 26.84 100.263 28.08 99.5427 29.26C98.8227 30.42 97.8727 31.36 96.6927 32.08C95.5127 32.78 94.2827 33.13 93.0027 33.13H90.3927L89.9127 36.31C89.8727 36.67 89.8527 36.9 89.8527 37C89.8527 37.42 89.9427 37.72 90.1227 37.9C90.3227 38.06 90.6427 38.14 91.0827 38.14C91.3427 38.14 91.6027 38.13 91.8627 38.11C92.1227 38.09 92.2927 38.07 92.3727 38.05L92.4627 38.23L91.9527 40.09C91.6727 40.09 91.1727 40.07 90.4527 40.03C89.7327 40.01 89.0327 40 88.3527 40C87.6927 40 86.8127 40.03 85.7127 40.09C84.6327 40.15 83.9027 40.2 83.5227 40.24L84.0027 38.29C84.8027 38.15 85.3627 37.91 85.6827 37.57C86.0027 37.23 86.2127 36.64 86.3127 35.8L87.7227 24.25L87.7827 23.53C87.7827 23.19 87.7227 22.96 87.6027 22.84C87.4827 22.7 87.2827 22.63 87.0027 22.63C86.7827 22.63 86.5727 22.64 86.3727 22.66C86.1927 22.68 86.0727 22.69 86.0127 22.69L85.8627 22.45L86.3127 20.71ZM93.2727 30.94C94.3527 30.7 95.1627 30.17 95.7027 29.35C96.2627 28.53 96.5427 27.47 96.5427 26.17C96.5427 25.09 96.2227 24.3 95.5827 23.8C94.9427 23.3 93.9527 23.05 92.6127 23.05C92.3127 23.05 92.1327 23.08 92.0727 23.14C92.0127 23.18 91.9627 23.32 91.9227 23.56C91.4827 25.9 91.1027 28.23 90.7827 30.55L93.2727 30.94ZM110.387 36.94C110.527 36.94 110.727 36.84 110.987 36.64C111.247 36.44 111.717 36.03 112.397 35.41L112.907 35.47L113.387 36.52C111.927 38.04 110.837 39.06 110.117 39.58C109.397 40.1 108.747 40.36 108.167 40.36C107.767 40.36 107.457 40.26 107.237 40.06C107.037 39.88 106.937 39.62 106.937 39.28C106.937 38.88 107.287 37.17 107.987 34.15L107.747 34.12C106.847 35.72 106.007 37.02 105.227 38.02C104.467 39 103.687 39.78 102.887 40.36C101.827 40.36 100.997 39.98 100.397 39.22C99.8172 38.46 99.5272 37.4 99.5272 36.04C99.5272 34.44 99.8772 32.87 100.577 31.33C101.297 29.77 102.207 28.5 103.307 27.52C104.427 26.54 105.567 26.05 106.727 26.05L109.337 26.56L109.577 25.9L109.907 25.72L112.217 26.11L112.457 26.62C112.017 28.3 111.597 30.08 111.197 31.96C110.817 33.84 110.517 35.46 110.297 36.82L110.387 36.94ZM103.847 36.94C104.127 36.94 104.537 36.58 105.077 35.86C105.617 35.12 106.187 34.16 106.787 32.98C107.407 31.78 107.967 30.53 108.467 29.23C108.047 28.97 107.597 28.76 107.117 28.6C106.637 28.44 106.217 28.36 105.857 28.36C105.417 28.36 104.987 28.65 104.567 29.23C104.147 29.81 103.807 30.57 103.547 31.51C103.287 32.43 103.157 33.38 103.157 34.36C103.157 35.1 103.217 35.72 103.337 36.22C103.477 36.7 103.647 36.94 103.847 36.94ZM122.514 36.37C121.594 37.53 120.704 38.49 119.844 39.25C119.004 39.99 118.354 40.36 117.894 40.36C117.034 40.36 116.354 40.15 115.854 39.73C115.374 39.29 115.134 38.69 115.134 37.93C115.134 37.71 115.144 37.54 115.164 37.42L116.664 28.42L116.454 28.24L114.594 28.21L114.504 28.06L114.684 26.68L116.964 26.32L117.414 22.84L121.164 21.79L121.464 22.15C121.404 22.39 121.254 22.93 121.014 23.77C120.794 24.59 120.584 25.46 120.384 26.38L123.684 26.35L123.834 26.5L123.534 28.18L120.324 28.15L119.964 28.33L118.494 36.01L118.464 36.31C118.464 36.75 118.684 36.97 119.124 36.97C119.364 36.97 119.664 36.84 120.024 36.58C120.404 36.32 120.904 35.87 121.524 35.23L122.034 35.32L122.514 36.37ZM137.803 36.49C136.483 37.89 135.433 38.88 134.653 39.46C133.893 40.04 133.233 40.33 132.673 40.33C131.753 40.33 131.293 39.9 131.293 39.04C131.293 38.7 131.373 38.21 131.533 37.57C131.713 36.93 131.973 36.06 132.313 34.96C132.573 34.1 132.813 33.26 133.033 32.44C133.253 31.6 133.363 31 133.363 30.64C133.363 30.3 133.293 30.04 133.153 29.86C133.013 29.66 132.823 29.56 132.583 29.56C132.103 29.56 131.433 30.26 130.573 31.66C129.733 33.06 128.883 34.87 128.023 37.09L127.783 39.16C127.743 39.4 127.383 39.64 126.703 39.88C126.043 40.12 125.393 40.24 124.753 40.24L124.363 39.79C124.723 37.63 125.043 35.6 125.323 33.7C125.623 31.78 125.843 30.34 125.983 29.38C126.023 28.94 125.953 28.63 125.773 28.45C125.593 28.25 125.283 28.15 124.843 28.15H123.823L124.093 26.41C125.613 26.41 127.493 26.33 129.733 26.17L130.063 26.65C129.803 27.47 129.533 28.44 129.253 29.56C128.993 30.68 128.783 31.69 128.623 32.59L128.803 32.62C129.643 30.86 130.473 29.4 131.293 28.24C132.133 27.06 132.923 26.25 133.663 25.81C134.643 25.81 135.423 26.09 136.003 26.65C136.603 27.21 136.903 27.93 136.903 28.81C136.903 29.27 136.793 29.91 136.573 30.73C136.353 31.53 136.043 32.55 135.643 33.79C135.143 35.29 134.843 36.29 134.743 36.79L134.833 36.88C134.973 36.88 135.153 36.79 135.373 36.61C135.613 36.43 136.093 36.01 136.813 35.35L137.353 35.44L137.803 36.49ZM149.761 28.63C149.761 29.51 149.511 30.29 149.011 30.97C148.531 31.63 147.761 32.24 146.701 32.8C145.661 33.36 144.251 33.93 142.471 34.51C142.471 35.43 142.641 36.16 142.981 36.7C143.321 37.24 143.791 37.51 144.391 37.51C144.951 37.51 145.491 37.31 146.011 36.91C146.551 36.49 147.021 35.9 147.421 35.14L147.961 35.2L148.891 36.37C148.351 37.51 147.541 38.46 146.461 39.22C145.381 39.98 144.291 40.36 143.191 40.36C141.911 40.36 140.901 39.89 140.161 38.95C139.421 38.01 139.051 36.74 139.051 35.14C139.051 33.56 139.401 32.05 140.101 30.61C140.821 29.17 141.761 28.01 142.921 27.13C144.101 26.25 145.331 25.81 146.611 25.81C147.591 25.81 148.361 26.06 148.921 26.56C149.481 27.06 149.761 27.75 149.761 28.63ZM145.591 28.39C144.911 28.39 144.291 28.8 143.731 29.62C143.171 30.42 142.791 31.45 142.591 32.71C143.971 32.25 144.981 31.76 145.621 31.24C146.261 30.72 146.581 30.13 146.581 29.47C146.581 29.13 146.491 28.87 146.311 28.69C146.151 28.49 145.911 28.39 145.591 28.39ZM151.46 39.79C151.64 38.81 151.95 36.94 152.39 34.18C152.85 31.42 153.08 29.79 153.08 29.29C153.08 28.89 152.99 28.6 152.81 28.42C152.65 28.24 152.36 28.15 151.94 28.15H150.89L151.16 26.41C152.08 26.41 153.16 26.38 154.4 26.32C155.64 26.24 156.45 26.19 156.83 26.17L157.19 26.65C157.09 26.95 156.89 27.63 156.59 28.69C156.31 29.73 156.08 30.77 155.9 31.81H156.08C156.88 30.05 157.75 28.64 158.69 27.58C159.63 26.5 160.51 25.94 161.33 25.9C161.51 26 161.68 26.19 161.84 26.47C162 26.75 162.09 27.03 162.11 27.31C162.09 27.79 162.01 28.33 161.87 28.93C161.73 29.51 161.59 30.02 161.45 30.46C161.33 30.88 161.25 31.15 161.21 31.27L160.07 31.33C160.09 30.63 159.91 30.28 159.53 30.28C158.95 30.28 158.27 30.82 157.49 31.9C156.73 32.96 155.98 34.42 155.24 36.28L154.88 39.16C154.84 39.4 154.48 39.64 153.8 39.88C153.14 40.12 152.49 40.24 151.85 40.24L151.46 39.79ZM163.367 35.32C163.407 36.14 163.667 36.8 164.147 37.3C164.627 37.78 165.267 38.02 166.067 38.02C166.567 38.02 166.977 37.89 167.297 37.63C167.617 37.35 167.777 37.01 167.777 36.61C167.777 36.23 167.617 35.89 167.297 35.59C166.977 35.27 166.497 34.89 165.857 34.45C165.217 34.01 164.717 33.64 164.357 33.34C163.997 33.02 163.677 32.63 163.397 32.17C163.137 31.71 163.007 31.18 163.007 30.58C163.007 29.7 163.257 28.9 163.757 28.18C164.257 27.44 164.937 26.86 165.797 26.44C166.657 26.02 167.597 25.81 168.617 25.81C169.397 25.81 170.117 25.92 170.777 26.14C171.437 26.36 171.957 26.66 172.337 27.04C171.917 28.14 171.447 29.14 170.927 30.04H170.357C170.137 29.48 169.827 29.05 169.427 28.75C169.027 28.43 168.587 28.27 168.107 28.27C167.707 28.27 167.367 28.39 167.087 28.63C166.827 28.87 166.697 29.17 166.697 29.53C166.697 30.01 166.997 30.48 167.597 30.94C167.777 31.08 167.957 31.22 168.137 31.36C168.317 31.48 168.477 31.59 168.617 31.69C169.517 32.31 170.207 32.9 170.687 33.46C171.167 34 171.407 34.67 171.407 35.47C171.407 36.35 171.137 37.17 170.597 37.93C170.077 38.67 169.357 39.26 168.437 39.7C167.537 40.14 166.547 40.36 165.467 40.36C164.427 40.36 163.527 40.2 162.767 39.88C162.027 39.54 161.567 39.1 161.387 38.56C161.487 38.06 161.677 37.48 161.957 36.82C162.257 36.16 162.537 35.65 162.797 35.29L163.367 35.32Z" fill="#FCB0B0"/>
</svg>
