<svg width="169" height="59" viewBox="0 0 169 59" fill="none" xmlns="http://www.w3.org/2000/svg">
<path d="M0 0.801331H140.204C156.107 0.801331 169 13.6939 169 29.5976V29.5976C169 45.5014 156.107 58.3939 140.204 58.3939H0V0.801331Z" fill="white"/>
<path d="M30.2267 20.8413C30.7067 20.8413 31.1267 20.8513 31.4867 20.8713L33.8567 20.9013C34.5567 20.9013 35.3067 20.8813 36.1067 20.8413C36.9067 20.8013 37.4667 20.7713 37.7867 20.7513C40.0267 20.7513 41.7067 21.2213 42.8267 22.1613C43.9667 23.0813 44.5367 24.2513 44.5367 25.6713C44.5367 26.9713 44.1767 28.2113 43.4567 29.3913C42.7367 30.5513 41.7867 31.4913 40.6067 32.2113C39.4267 32.9113 38.1967 33.2613 36.9167 33.2613H34.3067L33.8267 36.4413C33.7867 36.8013 33.7667 37.0313 33.7667 37.1313C33.7667 37.5513 33.8567 37.8513 34.0367 38.0313C34.2367 38.1913 34.5567 38.2713 34.9967 38.2713C35.2567 38.2713 35.5167 38.2613 35.7767 38.2413C36.0367 38.2213 36.2067 38.2013 36.2867 38.1813L36.3767 38.3613L35.8667 40.2213C35.5867 40.2213 35.0867 40.2013 34.3667 40.1613C33.6467 40.1413 32.9467 40.1313 32.2667 40.1313C31.6067 40.1313 30.7267 40.1613 29.6267 40.2213C28.5467 40.2813 27.8167 40.3313 27.4367 40.3713L27.9167 38.4213C28.7167 38.2813 29.2767 38.0413 29.5967 37.7013C29.9167 37.3613 30.1267 36.7713 30.2267 35.9313L31.6367 24.3813L31.6967 23.6613C31.6967 23.3213 31.6367 23.0913 31.5167 22.9713C31.3967 22.8313 31.1967 22.7613 30.9167 22.7613C30.6967 22.7613 30.4867 22.7713 30.2867 22.7913C30.1067 22.8113 29.9867 22.8213 29.9267 22.8213L29.7767 22.5813L30.2267 20.8413ZM37.1867 31.0713C38.2667 30.8313 39.0767 30.3013 39.6167 29.4813C40.1767 28.6613 40.4567 27.6013 40.4567 26.3013C40.4567 25.2213 40.1367 24.4313 39.4967 23.9313C38.8567 23.4313 37.8667 23.1813 36.5267 23.1813C36.2267 23.1813 36.0467 23.2113 35.9867 23.2713C35.9267 23.3113 35.8767 23.4513 35.8367 23.6913C35.3967 26.0313 35.0167 28.3613 34.6967 30.6813L37.1867 31.0713ZM45.2173 39.9213C45.3973 38.9413 45.7073 37.0713 46.1473 34.3113C46.6073 31.5513 46.8373 29.9213 46.8373 29.4213C46.8373 29.0213 46.7473 28.7313 46.5673 28.5513C46.4073 28.3713 46.1173 28.2813 45.6973 28.2813H44.6473L44.9173 26.5413C45.8373 26.5413 46.9173 26.5113 48.1573 26.4513C49.3973 26.3713 50.2073 26.3213 50.5873 26.3013L50.9473 26.7813C50.8473 27.0813 50.6473 27.7613 50.3473 28.8213C50.0673 29.8613 49.8373 30.9013 49.6573 31.9413H49.8373C50.6373 30.1813 51.5073 28.7713 52.4473 27.7113C53.3873 26.6313 54.2673 26.0713 55.0873 26.0313C55.2673 26.1313 55.4373 26.3213 55.5973 26.6013C55.7573 26.8813 55.8473 27.1613 55.8673 27.4413C55.8473 27.9213 55.7673 28.4613 55.6273 29.0613C55.4873 29.6413 55.3473 30.1513 55.2073 30.5913C55.0873 31.0113 55.0073 31.2813 54.9673 31.4013L53.8273 31.4613C53.8473 30.7613 53.6673 30.4113 53.2873 30.4113C52.7073 30.4113 52.0273 30.9513 51.2473 32.0313C50.4873 33.0913 49.7373 34.5513 48.9973 36.4113L48.6373 39.2913C48.5973 39.5313 48.2373 39.7713 47.5573 40.0113C46.8973 40.2513 46.2473 40.3713 45.6073 40.3713L45.2173 39.9213ZM59.8923 40.4913C58.5723 40.4913 57.5323 40.0213 56.7723 39.0813C56.0123 38.1213 55.6323 36.8113 55.6323 35.1513C55.6323 33.4513 55.9523 31.9013 56.5923 30.5013C57.2523 29.0813 58.1423 27.9713 59.2623 27.1713C60.4023 26.3513 61.6623 25.9413 63.0423 25.9413C64.4023 25.9413 65.4523 26.3813 66.1923 27.2613C66.9523 28.1213 67.3323 29.3513 67.3323 30.9513C67.3323 32.7313 67.0123 34.3513 66.3723 35.8113C65.7323 37.2513 64.8423 38.3913 63.7023 39.2313C62.5623 40.0713 61.2923 40.4913 59.8923 40.4913ZM61.0923 38.1513C61.8923 38.1513 62.5223 37.6513 62.9823 36.6513C63.4423 35.6513 63.6723 34.2113 63.6723 32.3313C63.6723 31.0913 63.5123 30.1513 63.1923 29.5113C62.8923 28.8713 62.4323 28.5513 61.8123 28.5513C61.0123 28.5513 60.3823 29.0213 59.9223 29.9613C59.4623 30.8813 59.2323 32.1913 59.2323 33.8913C59.2323 35.2713 59.3923 36.3313 59.7123 37.0713C60.0523 37.7913 60.5123 38.1513 61.0923 38.1513ZM71.0338 47.3613C70.0338 47.3613 69.1138 47.1713 68.2738 46.7913C67.4537 46.4313 66.8237 45.9413 66.3837 45.3213C65.9237 44.7013 65.7237 44.0313 65.7837 43.3113L65.8737 43.0413C66.7737 42.4213 68.5038 41.4113 71.0638 40.0113L71.0938 39.7713C70.5138 39.4713 70.0538 38.9713 69.7138 38.2713C69.3938 37.5513 69.2338 36.7013 69.2338 35.7213C69.2338 34.2213 69.5838 32.7313 70.2838 31.2513C70.9838 29.7513 71.8838 28.5313 72.9838 27.5913C74.0838 26.6313 75.1838 26.1513 76.2838 26.1513L78.9238 26.6913L79.1638 26.0013L79.5238 25.8513L81.8338 26.2413L82.1638 26.7513C81.6638 27.7513 81.2538 28.7513 80.9338 29.7513C80.6138 30.7513 80.4038 31.6413 80.3038 32.4213C80.2638 32.7413 80.2138 33.2813 80.1538 34.0413C80.1138 34.7813 80.0838 35.3413 80.0638 35.7213C79.9438 37.8213 79.8438 39.1313 79.7638 39.6513C79.6438 40.7513 79.1038 41.9013 78.1438 43.1013C77.1838 44.3213 76.0338 45.3313 74.6938 46.1313C73.3738 46.9513 72.1538 47.3613 71.0338 47.3613ZM73.6738 36.7713C74.0738 36.7713 74.6738 36.0813 75.4738 34.7013C76.2738 33.3213 77.1238 31.5313 78.0238 29.3313C76.9038 28.7713 76.0138 28.4913 75.3538 28.4913C74.9338 28.4913 74.5238 28.7613 74.1238 29.3013C73.7438 29.8413 73.4338 30.5513 73.1938 31.4313C72.9538 32.2913 72.8338 33.1713 72.8338 34.0713C72.8338 34.8113 72.9138 35.4513 73.0738 35.9913C73.2538 36.5113 73.4538 36.7713 73.6738 36.7713ZM72.3538 44.7213C73.5338 44.7213 74.5138 44.3313 75.2938 43.5513C76.0738 42.7713 76.5438 41.6913 76.7038 40.3113L77.3938 34.5513L77.1238 34.4613C76.0638 36.2813 75.2438 37.5713 74.6638 38.3313C74.1038 39.0713 73.5138 39.6613 72.8938 40.1013L71.9638 40.7313C70.9638 41.4113 70.2638 41.9013 69.8638 42.2013C69.4638 42.5013 69.2638 42.7213 69.2638 42.8613C69.2638 43.1613 69.4138 43.4513 69.7138 43.7313C70.0138 44.0313 70.4038 44.2713 70.8838 44.4513C71.3638 44.6313 71.8538 44.7213 72.3538 44.7213ZM83.6255 39.9213C83.8055 38.9413 84.1155 37.0713 84.5555 34.3113C85.0155 31.5513 85.2455 29.9213 85.2455 29.4213C85.2455 29.0213 85.1555 28.7313 84.9755 28.5513C84.8155 28.3713 84.5255 28.2813 84.1055 28.2813H83.0555L83.3255 26.5413C84.2455 26.5413 85.3255 26.5113 86.5655 26.4513C87.8055 26.3713 88.6155 26.3213 88.9955 26.3013L89.3555 26.7813C89.2555 27.0813 89.0555 27.7613 88.7555 28.8213C88.4755 29.8613 88.2455 30.9013 88.0655 31.9413H88.2455C89.0455 30.1813 89.9155 28.7713 90.8555 27.7113C91.7955 26.6313 92.6755 26.0713 93.4955 26.0313C93.6755 26.1313 93.8455 26.3213 94.0055 26.6013C94.1655 26.8813 94.2555 27.1613 94.2755 27.4413C94.2555 27.9213 94.1755 28.4613 94.0355 29.0613C93.8955 29.6413 93.7555 30.1513 93.6155 30.5913C93.4955 31.0113 93.4155 31.2813 93.3755 31.4013L92.2355 31.4613C92.2555 30.7613 92.0755 30.4113 91.6955 30.4113C91.1155 30.4113 90.4355 30.9513 89.6555 32.0313C88.8955 33.0913 88.1455 34.5513 87.4055 36.4113L87.0455 39.2913C87.0055 39.5313 86.6455 39.7713 85.9655 40.0113C85.3055 40.2513 84.6555 40.3713 84.0155 40.3713L83.6255 39.9213ZM104.75 37.0713C104.89 37.0713 105.09 36.9713 105.35 36.7713C105.61 36.5713 106.08 36.1613 106.76 35.5413L107.27 35.6013L107.75 36.6513C106.29 38.1713 105.2 39.1913 104.48 39.7113C103.76 40.2313 103.11 40.4913 102.53 40.4913C102.13 40.4913 101.82 40.3913 101.6 40.1913C101.4 40.0113 101.3 39.7513 101.3 39.4113C101.3 39.0113 101.65 37.3013 102.35 34.2813L102.11 34.2513C101.21 35.8513 100.37 37.1513 99.5905 38.1513C98.8305 39.1313 98.0505 39.9113 97.2505 40.4913C96.1905 40.4913 95.3605 40.1113 94.7605 39.3513C94.1805 38.5913 93.8905 37.5313 93.8905 36.1713C93.8905 34.5713 94.2405 33.0013 94.9405 31.4613C95.6605 29.9013 96.5705 28.6313 97.6705 27.6513C98.7905 26.6713 99.9305 26.1813 101.09 26.1813L103.7 26.6913L103.94 26.0313L104.27 25.8513L106.58 26.2413L106.82 26.7513C106.38 28.4313 105.96 30.2113 105.56 32.0913C105.18 33.9713 104.88 35.5913 104.66 36.9513L104.75 37.0713ZM98.2105 37.0713C98.4905 37.0713 98.9005 36.7113 99.4405 35.9913C99.9805 35.2513 100.55 34.2913 101.15 33.1113C101.77 31.9113 102.33 30.6613 102.83 29.3613C102.41 29.1013 101.96 28.8913 101.48 28.7313C101 28.5713 100.58 28.4913 100.22 28.4913C99.7805 28.4913 99.3505 28.7813 98.9305 29.3613C98.5105 29.9413 98.1705 30.7013 97.9105 31.6413C97.6505 32.5613 97.5205 33.5113 97.5205 34.4913C97.5205 35.2313 97.5805 35.8513 97.7005 36.3513C97.8405 36.8313 98.0105 37.0713 98.2105 37.0713ZM127.287 37.0113C127.407 37.0113 127.617 36.8913 127.917 36.6513C128.217 36.4113 128.677 36.0213 129.297 35.4813L129.837 35.5713L130.287 36.6213C128.947 38.0213 127.887 39.0113 127.107 39.5913C126.327 40.1713 125.667 40.4613 125.127 40.4613C124.187 40.4613 123.717 40.0313 123.717 39.1713C123.717 38.8313 123.797 38.3613 123.957 37.7613C124.137 37.1613 124.417 36.2513 124.797 35.0313C125.197 33.7913 125.477 32.8613 125.637 32.2413C125.817 31.6213 125.907 31.1313 125.907 30.7713C125.907 30.4513 125.827 30.1913 125.667 29.9913C125.527 29.7913 125.337 29.6913 125.097 29.6913C124.577 29.6913 123.857 30.4313 122.937 31.9113C122.017 33.3713 121.077 35.2613 120.117 37.5813L119.847 39.2913C119.807 39.5313 119.447 39.7713 118.767 40.0113C118.107 40.2513 117.457 40.3713 116.817 40.3713L116.427 39.9213C116.647 39.0613 117.027 37.4313 117.567 35.0313C118.127 32.6113 118.407 31.1613 118.407 30.6813C118.407 30.3613 118.337 30.1213 118.197 29.9613C118.057 29.7813 117.857 29.6913 117.597 29.6913C117.117 29.6913 116.457 30.3813 115.617 31.7613C114.797 33.1213 113.957 34.9013 113.097 37.1013L112.827 39.2913C112.787 39.5313 112.427 39.7713 111.747 40.0113C111.087 40.2513 110.437 40.3713 109.797 40.3713L109.407 39.9213C109.567 38.9613 109.867 37.1213 110.307 34.4013C110.747 31.6813 110.987 30.0513 111.027 29.5113C111.067 29.0713 110.997 28.7613 110.817 28.5813C110.637 28.3813 110.327 28.2813 109.887 28.2813H108.837L109.107 26.5413C110.027 26.5413 111.107 26.5113 112.347 26.4513C113.587 26.3713 114.397 26.3213 114.777 26.3013L115.137 26.7813C115.077 26.9413 114.957 27.3213 114.777 27.9213C114.617 28.5013 114.427 29.2313 114.207 30.1113C113.987 30.9913 113.807 31.8613 113.667 32.7213L113.817 32.7513C115.557 29.0913 117.187 26.8213 118.707 25.9413C119.667 25.9413 120.447 26.2213 121.047 26.7813C121.647 27.3213 121.947 28.0213 121.947 28.8813C121.947 29.2613 121.827 29.9213 121.587 30.8613C121.347 31.7813 121.177 32.4013 121.077 32.7213L121.227 32.7513C122.047 31.0313 122.887 29.5813 123.747 28.4013C124.607 27.2213 125.437 26.4013 126.237 25.9413C127.217 25.9413 127.997 26.2213 128.577 26.7813C129.157 27.3213 129.447 28.0313 129.447 28.9113C129.447 29.3713 129.327 30.0113 129.087 30.8313C128.867 31.6313 128.557 32.6113 128.157 33.7713C127.677 35.1713 127.357 36.2213 127.197 36.9213L127.287 37.0113ZM132.858 35.4513C132.898 36.2713 133.158 36.9313 133.638 37.4313C134.118 37.9113 134.758 38.1513 135.558 38.1513C136.058 38.1513 136.468 38.0213 136.788 37.7613C137.108 37.4813 137.268 37.1413 137.268 36.7413C137.268 36.3613 137.108 36.0213 136.788 35.7213C136.468 35.4013 135.988 35.0213 135.348 34.5813C134.708 34.1413 134.208 33.7713 133.848 33.4713C133.488 33.1513 133.168 32.7613 132.888 32.3013C132.628 31.8413 132.498 31.3113 132.498 30.7113C132.498 29.8313 132.748 29.0313 133.248 28.3113C133.748 27.5713 134.428 26.9913 135.288 26.5713C136.148 26.1513 137.088 25.9413 138.108 25.9413C138.888 25.9413 139.608 26.0513 140.268 26.2713C140.928 26.4913 141.448 26.7913 141.828 27.1713C141.408 28.2713 140.938 29.2713 140.418 30.1713H139.848C139.628 29.6113 139.318 29.1813 138.918 28.8813C138.518 28.5613 138.078 28.4013 137.598 28.4013C137.198 28.4013 136.858 28.5213 136.578 28.7613C136.318 29.0013 136.188 29.3013 136.188 29.6613C136.188 30.1413 136.488 30.6113 137.088 31.0713C137.268 31.2113 137.448 31.3513 137.628 31.4913C137.808 31.6113 137.968 31.7213 138.108 31.8213C139.008 32.4413 139.698 33.0313 140.178 33.5913C140.658 34.1313 140.898 34.8013 140.898 35.6013C140.898 36.4813 140.628 37.3013 140.088 38.0613C139.568 38.8013 138.848 39.3913 137.928 39.8313C137.028 40.2713 136.038 40.4913 134.958 40.4913C133.918 40.4913 133.018 40.3313 132.258 40.0113C131.518 39.6713 131.058 39.2313 130.878 38.6913C130.978 38.1913 131.168 37.6113 131.448 36.9513C131.748 36.2913 132.028 35.7813 132.288 35.4213L132.858 35.4513Z" fill="#FCB0B0"/>
</svg>
