<svg width="181" height="60" viewBox="0 0 181 60" fill="none" xmlns="http://www.w3.org/2000/svg">
<path d="M0 0H151C167.569 0 181 13.4315 181 30V30C181 46.5685 167.569 60 151 60H0V0Z" fill="white"/>
<path d="M56.1533 40.0382C55.2533 40.0382 54.4133 39.9482 53.6333 39.7682C52.8533 39.6082 52.2033 39.4282 51.6833 39.2282C51.1633 39.0282 50.9033 38.9182 50.9033 38.8982L50.7233 38.5082C50.7633 38.3682 50.8533 38.0482 50.9933 37.5482C51.1333 37.0482 51.2833 36.4182 51.4433 35.6582C51.6033 34.8982 51.7333 34.1482 51.8333 33.4082L54.2333 33.1982C54.1533 33.9982 54.1133 34.5282 54.1133 34.7882C54.1133 35.8082 54.3233 36.5182 54.7433 36.9182C55.1633 37.3182 55.8833 37.5182 56.9033 37.5182C57.9033 37.5182 58.7133 37.2782 59.3333 36.7982C59.9533 36.3182 60.2633 35.6882 60.2633 34.9082C60.2633 34.2882 60.0033 33.7582 59.4833 33.3182C58.9633 32.8582 58.1833 32.3482 57.1433 31.7882C56.1233 31.2482 55.3033 30.7682 54.6833 30.3482C54.0833 29.9282 53.5633 29.3982 53.1233 28.7582C52.6833 28.1182 52.4633 27.3682 52.4633 26.5082C52.4633 25.2882 52.8133 24.1982 53.5133 23.2382C54.2133 22.2582 55.1833 21.4882 56.4233 20.9282C57.6633 20.3682 59.0633 20.0882 60.6233 20.0882C61.4633 20.0882 62.2633 20.1482 63.0233 20.2682C63.7833 20.3882 64.3933 20.5082 64.8533 20.6282C65.3333 20.7482 65.6333 20.8282 65.7533 20.8682L65.9033 21.2282C65.8033 21.5082 65.6133 22.1582 65.3333 23.1782C65.0733 24.1782 64.8333 25.2482 64.6133 26.3882L62.4233 26.5682L62.1833 26.3582C62.2033 26.2382 62.2433 26.0082 62.3033 25.6682C62.3833 25.3082 62.4233 25.0082 62.4233 24.7682C62.4233 24.0482 62.2133 23.5382 61.7933 23.2382C61.3933 22.9182 60.7433 22.7582 59.8433 22.7582C58.9633 22.7582 58.2233 22.9882 57.6233 23.4482C57.0433 23.9082 56.7533 24.4882 56.7533 25.1882C56.7533 25.6882 56.9333 26.1382 57.2933 26.5382C57.6533 26.9382 58.1833 27.3382 58.8833 27.7382C59.1233 27.8782 59.3433 28.0082 59.5433 28.1282C59.7633 28.2282 59.9533 28.3282 60.1133 28.4282C61.0933 28.9682 61.8833 29.4482 62.4833 29.8682C63.0833 30.2682 63.5933 30.7782 64.0133 31.3982C64.4533 32.0182 64.6733 32.7382 64.6733 33.5582C64.6733 34.8382 64.3233 35.9682 63.6233 36.9482C62.9233 37.9282 61.9233 38.6882 60.6233 39.2282C59.3433 39.7682 57.8533 40.0382 56.1533 40.0382ZM74.8592 36.0482C73.9392 37.2082 73.0492 38.1682 72.1892 38.9282C71.3492 39.6682 70.6992 40.0382 70.2392 40.0382C69.3792 40.0382 68.6992 39.8282 68.1992 39.4082C67.7192 38.9682 67.4792 38.3682 67.4792 37.6082C67.4792 37.3882 67.4892 37.2182 67.5092 37.0982L69.0092 28.0982L68.7992 27.9182L66.9392 27.8882L66.8492 27.7382L67.0292 26.3582L69.3092 25.9982L69.7592 22.5182L73.5092 21.4682L73.8092 21.8282C73.7492 22.0682 73.5992 22.6082 73.3592 23.4482C73.1392 24.2682 72.9292 25.1382 72.7292 26.0582L76.0292 26.0282L76.1792 26.1782L75.8792 27.8582L72.6692 27.8282L72.3092 28.0082L70.8392 35.6882L70.8092 35.9882C70.8092 36.4282 71.0292 36.6482 71.4692 36.6482C71.7092 36.6482 72.0092 36.5182 72.3692 36.2582C72.7492 35.9982 73.2492 35.5482 73.8692 34.9082L74.3792 34.9982L74.8592 36.0482ZM79.8962 40.0382C78.5762 40.0382 77.5362 39.5682 76.7762 38.6282C76.0162 37.6682 75.6362 36.3582 75.6362 34.6982C75.6362 32.9982 75.9562 31.4482 76.5962 30.0482C77.2562 28.6282 78.1462 27.5182 79.2662 26.7182C80.4062 25.8982 81.6662 25.4882 83.0462 25.4882C84.4062 25.4882 85.4562 25.9282 86.1962 26.8082C86.9562 27.6682 87.3362 28.8982 87.3362 30.4982C87.3362 32.2782 87.0162 33.8982 86.3762 35.3582C85.7362 36.7982 84.8462 37.9382 83.7062 38.7782C82.5662 39.6182 81.2962 40.0382 79.8962 40.0382ZM81.0962 37.6982C81.8962 37.6982 82.5262 37.1982 82.9862 36.1982C83.4462 35.1982 83.6762 33.7582 83.6762 31.8782C83.6762 30.6382 83.5162 29.6982 83.1962 29.0582C82.8962 28.4182 82.4362 28.0982 81.8162 28.0982C81.0162 28.0982 80.3862 28.5682 79.9262 29.5082C79.4662 30.4282 79.2362 31.7382 79.2362 33.4382C79.2362 34.8182 79.3962 35.8782 79.7162 36.6182C80.0562 37.3382 80.5162 37.6982 81.0962 37.6982ZM89.5377 39.4682C89.7177 38.4882 90.0277 36.6182 90.4677 33.8582C90.9277 31.0982 91.1577 29.4682 91.1577 28.9682C91.1577 28.5682 91.0677 28.2782 90.8877 28.0982C90.7277 27.9182 90.4377 27.8282 90.0177 27.8282H88.9677L89.2377 26.0882C90.1577 26.0882 91.2377 26.0582 92.4777 25.9982C93.7177 25.9182 94.5277 25.8682 94.9077 25.8482L95.2677 26.3282C95.1677 26.6282 94.9677 27.3082 94.6677 28.3682C94.3877 29.4082 94.1577 30.4482 93.9777 31.4882H94.1577C94.9577 29.7282 95.8277 28.3182 96.7677 27.2582C97.7077 26.1782 98.5877 25.6182 99.4077 25.5782C99.5877 25.6782 99.7577 25.8682 99.9177 26.1482C100.078 26.4282 100.168 26.7082 100.188 26.9882C100.168 27.4682 100.088 28.0082 99.9477 28.6082C99.8077 29.1882 99.6677 29.6982 99.5277 30.1382C99.4077 30.5582 99.3277 30.8282 99.2877 30.9482L98.1477 31.0082C98.1677 30.3082 97.9877 29.9582 97.6077 29.9582C97.0277 29.9582 96.3477 30.4982 95.5677 31.5782C94.8077 32.6382 94.0577 34.0982 93.3177 35.9582L92.9577 38.8382C92.9177 39.0782 92.5577 39.3182 91.8777 39.5582C91.2177 39.7982 90.5677 39.9182 89.9277 39.9182L89.5377 39.4682ZM104.536 36.6182C104.656 36.6182 104.826 36.5382 105.046 36.3782C105.266 36.2182 105.766 35.7882 106.546 35.0882L107.056 35.1482L107.536 36.1982C106.256 37.5782 105.216 38.5682 104.416 39.1682C103.636 39.7482 102.966 40.0382 102.406 40.0382C101.926 40.0382 101.576 39.9182 101.356 39.6782C101.136 39.4382 101.026 39.0682 101.026 38.5682C101.986 32.7482 102.466 29.5482 102.466 28.9682C102.466 28.5682 102.376 28.2782 102.196 28.0982C102.016 27.9182 101.726 27.8282 101.326 27.8282H100.276L100.546 26.0882C101.786 26.0882 103.686 26.0082 106.246 25.8482L106.606 26.2982C106.186 27.7182 105.776 29.3982 105.376 31.3382C104.976 33.2582 104.666 34.9782 104.446 36.4982L104.536 36.6182ZM104.566 23.0882C103.986 23.0882 103.536 22.9282 103.216 22.6082C102.916 22.2682 102.766 21.8182 102.766 21.2582C102.766 20.4982 103.016 19.8682 103.516 19.3682C104.016 18.8482 104.636 18.5882 105.376 18.5882C105.956 18.5882 106.406 18.7582 106.726 19.0982C107.046 19.4382 107.206 19.8782 107.206 20.4182C107.206 21.1782 106.956 21.8182 106.456 22.3382C105.956 22.8382 105.326 23.0882 104.566 23.0882ZM119.362 28.3082C119.362 29.1882 119.112 29.9682 118.612 30.6482C118.132 31.3082 117.362 31.9182 116.302 32.4782C115.262 33.0382 113.852 33.6082 112.072 34.1882C112.072 35.1082 112.242 35.8382 112.582 36.3782C112.922 36.9182 113.392 37.1882 113.992 37.1882C114.552 37.1882 115.092 36.9882 115.612 36.5882C116.152 36.1682 116.622 35.5782 117.022 34.8182L117.562 34.8782L118.492 36.0482C117.952 37.1882 117.142 38.1382 116.062 38.8982C114.982 39.6582 113.892 40.0382 112.792 40.0382C111.512 40.0382 110.502 39.5682 109.762 38.6282C109.022 37.6882 108.652 36.4182 108.652 34.8182C108.652 33.2382 109.002 31.7282 109.702 30.2882C110.422 28.8482 111.362 27.6882 112.522 26.8082C113.702 25.9282 114.932 25.4882 116.212 25.4882C117.192 25.4882 117.962 25.7382 118.522 26.2382C119.082 26.7382 119.362 27.4282 119.362 28.3082ZM115.192 28.0682C114.512 28.0682 113.892 28.4782 113.332 29.2982C112.772 30.0982 112.392 31.1282 112.192 32.3882C113.572 31.9282 114.582 31.4382 115.222 30.9182C115.862 30.3982 116.182 29.8082 116.182 29.1482C116.182 28.8082 116.092 28.5482 115.912 28.3682C115.752 28.1682 115.512 28.0682 115.192 28.0682ZM121.631 34.9982C121.671 35.8182 121.931 36.4782 122.411 36.9782C122.891 37.4582 123.531 37.6982 124.331 37.6982C124.831 37.6982 125.241 37.5682 125.561 37.3082C125.881 37.0282 126.041 36.6882 126.041 36.2882C126.041 35.9082 125.881 35.5682 125.561 35.2682C125.241 34.9482 124.761 34.5682 124.121 34.1282C123.481 33.6882 122.981 33.3182 122.621 33.0182C122.261 32.6982 121.941 32.3082 121.661 31.8482C121.401 31.3882 121.271 30.8582 121.271 30.2582C121.271 29.3782 121.521 28.5782 122.021 27.8582C122.521 27.1182 123.201 26.5382 124.061 26.1182C124.921 25.6982 125.861 25.4882 126.881 25.4882C127.661 25.4882 128.381 25.5982 129.041 25.8182C129.701 26.0382 130.221 26.3382 130.601 26.7182C130.181 27.8182 129.711 28.8182 129.191 29.7182H128.621C128.401 29.1582 128.091 28.7282 127.691 28.4282C127.291 28.1082 126.851 27.9482 126.371 27.9482C125.971 27.9482 125.631 28.0682 125.351 28.3082C125.091 28.5482 124.961 28.8482 124.961 29.2082C124.961 29.6882 125.261 30.1582 125.861 30.6182C126.041 30.7582 126.221 30.8982 126.401 31.0382C126.581 31.1582 126.741 31.2682 126.881 31.3682C127.781 31.9882 128.471 32.5782 128.951 33.1382C129.431 33.6782 129.671 34.3482 129.671 35.1482C129.671 36.0282 129.401 36.8482 128.861 37.6082C128.341 38.3482 127.621 38.9382 126.701 39.3782C125.801 39.8182 124.811 40.0382 123.731 40.0382C122.691 40.0382 121.791 39.8782 121.031 39.5582C120.291 39.2182 119.831 38.7782 119.651 38.2382C119.751 37.7382 119.941 37.1582 120.221 36.4982C120.521 35.8382 120.801 35.3282 121.061 34.9682L121.631 34.9982Z" fill="#FCB0B0"/>
</svg>
